# xmcd
# 
# Track frame offsets:
#     150
#     21451
#     35567
#     55053
#     69316
#     85223
#     103588
#     119111
#     142524
#     165131
# 
# Disc length: 2428
# 
# Revision: 0
# Processed by: cddbd v1.5.2PL0 Copyright (c) Steve Scherf et al.
# Submitted via: fre:ac v1.0.31
# 
DISCID=7b097a0a
DTITLE=Rosemary and Garlic - Rosemary and Garlic
DYEAR=2017
DGENRE=Folk
TTITLE0=Birds
TTITLE1=I'm Here
TTITLE2=Julia
TTITLE3=Blue Boy
TTITLE4=Take This Hand
TTITLE5=The Tempest
TTITLE6=Fireflies
TTITLE7=Wintering
TTITLE8=Shine
TTITLE9=Dreamer
EXTD=
EXTT0=
EXTT1=
EXTT2=
EXTT3=
EXTT4=
EXTT5=
EXTT6=
EXTT7=
EXTT8=
EXTT9=
PLAYORDER=
